<svg width="16" height="18" viewBox="0 0 16 18" fill="none" xmlns="http://www.w3.org/2000/svg">
<path d="M1.76246 17.6246C1.27779 17.6246 0.862873 17.4521 0.517724 17.1069C0.172575 16.7618 0 16.3468 0 15.8622V3.52493C0 3.04025 0.172575 2.62534 0.517724 2.28019C0.862873 1.93504 1.27779 1.76246 1.76246 1.76246H2.64369V0H4.40616V1.76246H11.456V0H13.2185V1.76246H14.0997C14.5844 1.76246 14.9993 1.93504 15.3444 2.28019C15.6896 2.62534 15.8622 3.04025 15.8622 3.52493V15.8622C15.8622 16.3468 15.6896 16.7618 15.3444 17.1069C14.9993 17.4521 14.5844 17.6246 14.0997 17.6246H1.76246ZM1.76246 15.8622H14.0997V7.04985H1.76246V15.8622ZM1.76246 5.28739H14.0997V3.52493H1.76246V5.28739Z" fill="#E3E3E3"/>
</svg>
