<svg width="17" height="17" viewBox="0 0 17 17" fill="none" xmlns="http://www.w3.org/2000/svg">
<path d="M7.6383 11.9017L12.6323 6.90777L11.6406 5.91606L7.6383 9.91831L5.61947 7.89947L4.62776 8.89118L7.6383 11.9017ZM8.63001 15.7269C7.65011 15.7269 6.72924 15.5409 5.8674 15.169C5.00556 14.7972 4.25587 14.2924 3.61835 13.6549C2.98082 13.0174 2.47611 12.2677 2.10422 11.4059C1.73233 10.544 1.54639 9.62316 1.54639 8.64326C1.54639 7.66335 1.73233 6.74248 2.10422 5.88064C2.47611 5.0188 2.98082 4.26912 3.61835 3.63159C4.25587 2.99407 5.00556 2.48936 5.8674 2.11747C6.72924 1.74558 7.65011 1.55963 8.63001 1.55963C9.60991 1.55963 10.5308 1.74558 11.3926 2.11747C12.2545 2.48936 13.0041 2.99407 13.6417 3.63159C14.2792 4.26912 14.7839 5.0188 15.1558 5.88064C15.5277 6.74248 15.7136 7.66335 15.7136 8.64326C15.7136 9.62316 15.5277 10.544 15.1558 11.4059C14.7839 12.2677 14.2792 13.0174 13.6417 13.6549C13.0041 14.2924 12.2545 14.7972 11.3926 15.169C10.5308 15.5409 9.60991 15.7269 8.63001 15.7269ZM8.63001 14.3102C10.212 14.3102 11.552 13.7612 12.65 12.6632C13.7479 11.5653 14.2969 10.2253 14.2969 8.64326C14.2969 7.06125 13.7479 5.72126 12.65 4.6233C11.552 3.52534 10.212 2.97636 8.63001 2.97636C7.048 2.97636 5.70802 3.52534 4.61005 4.6233C3.51209 5.72126 2.96311 7.06125 2.96311 8.64326C2.96311 10.2253 3.51209 11.5653 4.61005 12.6632C5.70802 13.7612 7.048 14.3102 8.63001 14.3102Z" fill="#E3E3E3"/>
</svg>
