<svg width="59" height="56" viewBox="0 0 59 56" fill="none" xmlns="http://www.w3.org/2000/svg">
<path d="M29.1667 40.8333C31.5 40.8333 33.5781 40.1406 35.401 38.7552C37.224 37.3698 38.5486 35.5833 39.375 33.3958H18.9583C19.7847 35.5833 21.1094 37.3698 22.9323 38.7552C24.7552 40.1406 26.8333 40.8333 29.1667 40.8333ZM21.875 29.1667C23.0903 29.1667 24.1233 28.7413 24.974 27.8906C25.8247 27.0399 26.25 26.0069 26.25 24.7917C26.25 23.5764 25.8247 22.5434 24.974 21.6927C24.1233 20.842 23.0903 20.4167 21.875 20.4167C20.6597 20.4167 19.6267 20.842 18.776 21.6927C17.9253 22.5434 17.5 23.5764 17.5 24.7917C17.5 26.0069 17.9253 27.0399 18.776 27.8906C19.6267 28.7413 20.6597 29.1667 21.875 29.1667ZM36.4583 29.1667C37.6736 29.1667 38.7066 28.7413 39.5573 27.8906C40.408 27.0399 40.8333 26.0069 40.8333 24.7917C40.8333 23.5764 40.408 22.5434 39.5573 21.6927C38.7066 20.842 37.6736 20.4167 36.4583 20.4167C35.2431 20.4167 34.2101 20.842 33.3594 21.6927C32.5087 22.5434 32.0833 23.5764 32.0833 24.7917C32.0833 26.0069 32.5087 27.0399 33.3594 27.8906C34.2101 28.7413 35.2431 29.1667 36.4583 29.1667ZM16.4062 12.8333L24.5729 2.26042C25.1562 1.48264 25.849 0.911458 26.651 0.546875C27.4531 0.182292 28.2917 0 29.1667 0C30.0417 0 30.8802 0.182292 31.6823 0.546875C32.4844 0.911458 33.1771 1.48264 33.7604 2.26042L41.9271 12.8333L54.3229 16.9896C55.5868 17.3785 56.5833 18.0955 57.3125 19.1406C58.0417 20.1858 58.4062 21.3403 58.4062 22.6042C58.4062 23.1875 58.3212 23.7708 58.151 24.3542C57.9809 24.9375 57.7014 25.4965 57.3125 26.0312L49.2917 37.4062L49.5833 49.3646C49.6319 51.066 49.0729 52.5 47.9062 53.6667C46.7396 54.8333 45.3785 55.4167 43.8229 55.4167C43.7257 55.4167 43.191 55.3438 42.2188 55.1979L29.1667 51.5521L16.1146 55.1979C15.8715 55.2951 15.6042 55.3559 15.3125 55.3802C15.0208 55.4045 14.7535 55.4167 14.5104 55.4167C12.9549 55.4167 11.5938 54.8333 10.4271 53.6667C9.26042 52.5 8.70139 51.066 8.75 49.3646L9.04167 37.3333L1.09375 26.0312C0.704861 25.4965 0.425347 24.9375 0.255208 24.3542C0.0850694 23.7708 0 23.1875 0 22.6042C0 21.3889 0.352431 20.2587 1.05729 19.2135C1.76215 18.1684 2.74653 17.4271 4.01042 16.9896L16.4062 12.8333ZM19.9792 17.8646L5.83333 22.5312L14.875 35.5833L14.5833 49.5104L29.1667 45.5L43.75 49.5833L43.4583 35.5833L52.5 22.6771L38.3542 17.8646L29.1667 5.83333L19.9792 17.8646Z" fill="#E3E3E3"/>
</svg>
