<svg width="15" height="18" viewBox="0 0 15 18" fill="none" xmlns="http://www.w3.org/2000/svg">
<path d="M7.04985 8.81232C7.53453 8.81232 7.94944 8.63974 8.29459 8.29459C8.63974 7.94944 8.81232 7.53453 8.81232 7.04985C8.81232 6.56518 8.63974 6.15026 8.29459 5.80511C7.94944 5.45996 7.53453 5.28739 7.04985 5.28739C6.56518 5.28739 6.15026 5.45996 5.80511 5.80511C5.45996 6.15026 5.28739 6.56518 5.28739 7.04985C5.28739 7.53453 5.45996 7.94944 5.80511 8.29459C6.15026 8.63974 6.56518 8.81232 7.04985 8.81232ZM7.04985 15.2894C8.84169 13.6444 10.1709 12.15 11.0374 10.8061C11.904 9.46223 12.3372 8.26889 12.3372 7.2261C12.3372 5.6252 11.8269 4.31436 10.8061 3.2936C9.78534 2.27284 8.53326 1.76246 7.04985 1.76246C5.56645 1.76246 4.31436 2.27284 3.2936 3.2936C2.27284 4.31436 1.76246 5.6252 1.76246 7.2261C1.76246 8.26889 2.19574 9.46223 3.06228 10.8061C3.92882 12.15 5.25802 13.6444 7.04985 15.2894ZM7.04985 17.6246C4.68521 15.6125 2.91908 13.7435 1.75145 12.0178C0.583816 10.2921 0 8.69482 0 7.2261C0 5.02302 0.708657 3.2679 2.12597 1.96074C3.54329 0.65358 5.18458 0 7.04985 0C8.91513 0 10.5564 0.65358 11.9737 1.96074C13.391 3.2679 14.0997 5.02302 14.0997 7.2261C14.0997 8.69482 13.5159 10.2921 12.3483 12.0178C11.1806 13.7435 9.41449 15.6125 7.04985 17.6246Z" fill="#E3E3E3"/>
</svg>
